# xmcd
#
# Track frame offsets: 
#        150
#        11568
#        24802
#        33104
#        53119
#        65831
#        77166
#        85962
#        111645
#        127967
#        141291
#        153641
#        162830
#        174101
#        193228
#        204983
#        220321
#
# Disc length: 2979 seconds
#
# Revision: 0
# Processed by: cddbd v1.5.2PL0 Copyright (c) Steve Scherf et al.
# Submitted via: ExactAudioCopy v0.99pb5
#
DISCID=e70ba111
DTITLE=Raekwon - Shaolin vs. Wu-Tang
DYEAR=2011
DGENRE=Rap
TTITLE0=Shaolin vs. Wu-Tang
TTITLE1=Every Soldier In The Hood feat. Method Man
TTITLE2=Silver Rings feat. Ghostface Killah
TTITLE3=Chop Chop Ninja feat. Inspectah Deck
TTITLE4=Butter Knives
TTITLE5=Snake Pond
TTITLE6=Crane Style feat. Busta Rhymes
TTITLE7=Rock 'N Roll feat. Jim Jones, Ghostface Killah and Kobe
TTITLE8=Rich And Black feat. Nas
TTITLE9=From The Hills feat. Method Man and Raheem DeVaughn
TTITLE10=Last Train To Scotland feat. Lloyd Banks
TTITLE11=Ferryboat Killaz
TTITLE12=Dart School
TTITLE13=Molasses feat. Rick Ross and Ghostface Killah
TTITLE14=The Scroll
TTITLE15=Masters Of Our Fate feat. Black Thought
TTITLE16=Wu-Chant (Outro)
EXTD=
EXTT0=
EXTT1=
EXTT2=
EXTT3=
EXTT4=
EXTT5=
EXTT6=
EXTT7=
EXTT8=
EXTT9=
EXTT10=
EXTT11=
EXTT12=
EXTT13=
EXTT14=
EXTT15=
EXTT16=
PLAYORDER=
